# xmcd
#
# Track frame offsets:
#	183
#	10853
#	22185
#	34925
#	47735
#	58213
#	70240
#	84655
#	95313
#	109398
#	120698
#	131188
#	142585
#	153213
#	163998
#	182255
#	196320
#	206683
#	219528
#	232605
#
# Disc length: 3293 seconds
#
# Revision: 2
# Processed by: cddbd v1.5.1PL0 Copyright (c) Steve Scherf et al.
# Submitted via: audiograbber 1.83.01
#
DISCID=160cdb14
DTITLE=Various Artist - The Best of Chess Rock-n-Roll
DYEAR=1989
DGENRE=Rock and Roll
TTITLE0=Chuck Berry    - Maybellene
TTITLE1=Bo Diddley - Bo Diddley
TTITLE2=Jackie Brenston and his Delta Kings      - Rocket 88
TTITLE3=Bobby Charles       - See You Later Alligator
TTITLE4=Dale Hawkins       - Suzie Q
TTITLE5=Chuck Berry         - Johnny B. Good
TTITLE6=The Moonglows   - Sincerely
TTITLE7=Clarence Frogman Henry   - Ain't Got No Home
TTITLE8=The Flamingos    - I'll Be Home
TTITLE9=Bo Diddley    - Who Do You Love
TTITLE10=The Tune Weavers  -  Happy Birthday Baby
TTITLE11=The Students    - I'm So Young
TTITLE12=The Monotones   -  Book of Love
TTITLE13=Lee Andrew and the Hearts     - Teardrops
TTITLE14=Harvey and the Moonglows    - 10 Commandments of Love
TTITLE15=The Sensations   -  Let Me In
TTITLE16=Johnnie and Joe   -  Over The Mountain, Across the Sea
TTITLE17=Tommy Tucker   - High Heel Sneakers
TTITLE18=Dave Baby Cortez   -  Rinky Dink
TTITLE19=The Jaynetts   - Sally Go Round the Roses
EXTD=#2
EXTT0=
EXTT1=
EXTT2=
EXTT3=
EXTT4=
EXTT5=
EXTT6=
EXTT7=
EXTT8=
EXTT9=
EXTT10=
EXTT11=
EXTT12=
EXTT13=
EXTT14=
EXTT15=
EXTT16=
EXTT17=
EXTT18=
EXTT19=
PLAYORDER=
